ffmpeg started on 2025-05-12 at 14:03:02
Report written to "D:\Convert\FFMetrics\reports\psnr_report-6.txt"
Log level: 32
Command line:
ffmpeg -hide_banner -nostdin -i "G:\\\xc0\xed\xe8\xec\xe5\\\xce\xed\xe3\xee\xe8\xed\xe3\xe8\\!_35_\xcb\xe5\xf2\xee_2024\\DreamCast\\\xc2\xe8\xf2\xf3\xe1\xe5\xf0 - \xdf \xf1\xf2\xe0\xeb\xe0 \xef\xee\xef\xf3\xeb\xff\xf0\xed\xee\xe9 \xef\xee\xf1\xeb\xe5 \xf2\xee\xe3\xee, \xea\xe0\xea \xe7\xe0\xe1\xfb\xeb\xe0 \xe2\xfb\xea\xeb\xfe\xf7\xe8\xf2\xfc \xf1\xf2\xf0\xe8\xec\\[DC] Vden - 02_Telegram_HEVC.mkv" -i "G:\\\xc0\xed\xe8\xec\xe5\\\xce\xed\xe3\xee\xe8\xed\xe3\xe8\\!_35_\xcb\xe5\xf2\xee_2024\\DreamCast\\\xc2\xe8\xf2\xf3\xe1\xe5\xf0 - \xdf \xf1\xf2\xe0\xeb\xe0 \xef\xee\xef\xf3\xeb\xff\xf0\xed\xee\xe9 \xef\xee\xf1\xeb\xe5 \xf2\xee\xe3\xee, \xea\xe0\xea \xe7\xe0\xe1\xfb\xeb\xe0 \xe2\xfb\xea\xeb\xfe\xf7\xe8\xf2\xfc \xf1\xf2\xf0\xe8\xec\\[DC] Vden - 02_Telegram.mp4" -lavfi "[0:v]settb=AVTB,setpts=PTS-STARTPTS,format=pix_fmts=yuv420p10,fps=24000/1001,scale=1920:1080:flags=bicubic[main];[1:v]settb=AVTB,setpts=PTS-STARTPTS,format=pix_fmts=yuv420p,fps=24000/1001,scale=1920:1080:flags=bicubic[ref];[main][ref]psnr=eof_action=endall:stats_file='D\\:/Convert/FFMetrics/logs/psnr_logfile-6.txt'" -f null -
Input #0, matroska,webm, from 'G:\Аниме\Онгоинги\!_35_Лето_2024\DreamCast\Витубер - Я стала популярной после того, как забыла выключить стрим\[DC] Vden - 02_Telegram_HEVC.mkv':
  Metadata:
    COMPATIBLE_BRANDS: isomiso2avc1mp41
    MAJOR_BRAND     : isom
    MINOR_VERSION   : 512
    ENCODER         : Lavf61.7.100
  Duration: 00:23:46.77, start: -0.021000, bitrate: 1914 kb/s
  Stream #0:0: Video: hevc (Main 10), yuv420p10le(tv, bt709, progressive), 1920x1080 [SAR 1:1 DAR 16:9], 23.98 fps, 23.98 tbr, 1k tbn (default)
      Metadata:
        HANDLER_NAME    : VideoHandler
        VENDOR_ID       : [0][0][0][0]
        ENCODER         : Lavc61.19.100 libx265
        BPS             : 1717533
        DURATION        : 00:23:46.591708333
        NUMBER_OF_FRAMES: 34204
        NUMBER_OF_BYTES : 306277292
        _STATISTICS_WRITING_APP: mkvpropedit v66.0.0 ('Josie') 64-bit
        _STATISTICS_WRITING_DATE_UTC: 2025-05-07 08:34:07
        _STATISTICS_TAGS: BPS DURATION NUMBER_OF_FRAMES NUMBER_OF_BYTES
  Stream #0:1: Audio: aac (LC), 48000 Hz, stereo, fltp (default)
      Metadata:
        HANDLER_NAME    : SoundHandler
        VENDOR_ID       : [0][0][0][0]
        ENCODER         : Lavc61.19.100 aac
        BPS             : 192987
        DURATION        : 00:23:46.773000000
        NUMBER_OF_FRAMES: 66881
        NUMBER_OF_BYTES : 34418661
        _STATISTICS_WRITING_APP: mkvpropedit v66.0.0 ('Josie') 64-bit
        _STATISTICS_WRITING_DATE_UTC: 2025-05-07 08:34:07
        _STATISTICS_TAGS: BPS DURATION NUMBER_OF_FRAMES NUMBER_OF_BYTES
Input #1, mov,mp4,m4a,3gp,3g2,mj2, from 'G:\Аниме\Онгоинги\!_35_Лето_2024\DreamCast\Витубер - Я стала популярной после того, как забыла выключить стрим\[DC] Vden - 02_Telegram.mp4':
  Metadata:
    major_brand     : isom
    minor_version   : 512
    compatible_brands: isomiso2avc1mp41
    encoder         : Lavf61.1.100
  Duration: 00:23:46.72, start: 0.000000, bitrate: 3886 kb/s
  Stream #1:0[0x1](und): Video: h264 (High) (avc1 / 0x31637661), yuv420p(tv, bt709, progressive), 1920x1080 [SAR 1:1 DAR 16:9], 3738 kb/s, 23.98 fps, 23.98 tbr, 24k tbn (default)
      Metadata:
        handler_name    : VideoHandler
        vendor_id       : [0][0][0][0]
        encoder         : Lavc61.3.100 h264_qsv
  Stream #1:1[0x2](und): Audio: aac (HE-AACv2) (mp4a / 0x6134706D), 48000 Hz, stereo, fltp, 144 kb/s (default)
      Metadata:
        handler_name    : SoundHandler
        vendor_id       : [0][0][0][0]
Stream mapping:
  Stream #0:0 (hevc) -> settb:default
  Stream #1:0 (h264) -> settb:default
  psnr:default -> Stream #0:0 (wrapped_avframe)
  Stream #0:1 -> #0:1 (aac (native) -> pcm_s16le (native))
Output #0, null, to 'pipe:':
  Metadata:
    COMPATIBLE_BRANDS: isomiso2avc1mp41
    MAJOR_BRAND     : isom
    MINOR_VERSION   : 512
    encoder         : Lavf61.7.100
  Stream #0:0: Video: wrapped_avframe, yuv420p10le(tv, bt709, progressive), 1920x1080 [SAR 1:1 DAR 16:9], q=2-31, 200 kb/s, 23.98 fps, 23.98 tbn
      Metadata:
        encoder         : Lavc61.19.100 wrapped_avframe
  Stream #0:1: Audio: pcm_s16le, 48000 Hz, stereo, s16, 1536 kb/s (default)
      Metadata:
        HANDLER_NAME    : SoundHandler
        VENDOR_ID       : [0][0][0][0]
        _STATISTICS_TAGS: BPS DURATION NUMBER_OF_FRAMES NUMBER_OF_BYTES
        BPS             : 192987
        DURATION        : 00:23:46.773000000
        NUMBER_OF_FRAMES: 66881
        NUMBER_OF_BYTES : 34418661
        _STATISTICS_WRITING_APP: mkvpropedit v66.0.0 ('Josie') 64-bit
        _STATISTICS_WRITING_DATE_UTC: 2025-05-07 08:34:07
        encoder         : Lavc61.19.100 pcm_s16le
frame=  175 fps=0.0 q=-0.0 size=N/A time=00:00:07.29 bitrate=N/A speed=14.3x    frame=  402 fps=389 q=-0.0 size=N/A time=00:00:16.76 bitrate=N/A speed=16.2x    frame=  640 fps=415 q=-0.0 size=N/A time=00:00:26.69 bitrate=N/A speed=17.3x    frame=  890 fps=431 q=-0.0 size=N/A time=00:00:37.12 bitrate=N/A speed=  18x    frame= 1140 fps=443 q=-0.0 size=N/A time=00:00:47.54 bitrate=N/A speed=18.5x    frame= 1366 fps=441 q=-0.0 size=N/A time=00:00:56.97 bitrate=N/A speed=18.4x    frame= 1560 fps=433 q=-0.0 size=N/A time=00:01:05.06 bitrate=N/A speed=18.1x    frame= 1761 fps=427 q=-0.0 size=N/A time=00:01:13.44 bitrate=N/A speed=17.8x    frame= 1977 fps=427 q=-0.0 size=N/A time=00:01:22.45 bitrate=N/A speed=17.8x    frame= 2174 fps=422 q=-0.0 size=N/A time=00:01:30.67 bitrate=N/A speed=17.6x    frame= 2395 fps=422 q=-0.0 size=N/A time=00:01:39.89 bitrate=N/A speed=17.6x    frame= 2574 fps=415 q=-0.0 size=N/A time=00:01:47.35 bitrate=N/A speed=17.3x    frame= 2746 fps=408 q=-0.0 size=N/A time=00:01:54.53 bitrate=N/A speed=  17x    frame= 2909 fps=402 q=-0.0 size=N/A time=00:02:01.32 bitrate=N/A speed=16.8x    frame= 3078 fps=397 q=-0.0 size=N/A time=00:02:08.37 bitrate=N/A speed=16.6x    frame= 3259 fps=395 q=-0.0 size=N/A time=00:02:15.92 bitrate=N/A speed=16.5x    frame= 3455 fps=393 q=-0.0 size=N/A time=00:02:24.10 bitrate=N/A speed=16.4x    frame= 3687 fps=397 q=-0.0 size=N/A time=00:02:33.77 bitrate=N/A speed=16.5x    frame= 3915 fps=399 q=-0.0 size=N/A time=00:02:43.28 bitrate=N/A speed=16.6x    frame= 4148 fps=402 q=-0.0 size=N/A time=00:02:53.00 bitrate=N/A speed=16.8x    frame= 4392 fps=405 q=-0.0 size=N/A time=00:03:03.18 bitrate=N/A speed=16.9x    frame= 4572 fps=403 q=-0.0 size=N/A time=00:03:10.69 bitrate=N/A speed=16.8x    frame= 4793 fps=404 q=-0.0 size=N/A time=00:03:19.90 bitrate=N/A speed=16.8x    frame= 5005 fps=404 q=-0.0 size=N/A time=00:03:28.75 bitrate=N/A speed=16.9x    frame= 5272 fps=408 q=-0.0 size=N/A time=00:03:39.88 bitrate=N/A speed=  17x    frame= 5546 fps=413 q=-0.0 size=N/A time=00:03:51.31 bitrate=N/A speed=17.2x    frame= 5808 fps=417 q=-0.0 size=N/A time=00:04:02.24 bitrate=N/A speed=17.4x    frame= 6046 fps=418 q=-0.0 size=N/A time=00:04:12.16 bitrate=N/A speed=17.4x    frame= 6298 fps=421 q=-0.0 size=N/A time=00:04:22.67 bitrate=N/A speed=17.6x    frame= 6532 fps=422 q=-0.0 size=N/A time=00:04:32.43 bitrate=N/A speed=17.6x    frame= 6776 fps=424 q=-0.0 size=N/A time=00:04:42.61 bitrate=N/A speed=17.7x    frame= 7011 fps=425 q=-0.0 size=N/A time=00:04:52.41 bitrate=N/A speed=17.7x    frame= 7236 fps=425 q=-0.0 size=N/A time=00:05:01.80 bitrate=N/A speed=17.7x    frame= 7443 fps=424 q=-0.0 size=N/A time=00:05:10.43 bitrate=N/A speed=17.7x    frame= 7721 fps=427 q=-0.0 size=N/A time=00:05:22.03 bitrate=N/A speed=17.8x    frame= 7980 fps=430 q=-0.0 size=N/A time=00:05:32.83 bitrate=N/A speed=17.9x    frame= 8187 fps=429 q=-0.0 size=N/A time=00:05:41.46 bitrate=N/A speed=17.9x    frame= 8447 fps=431 q=-0.0 size=N/A time=00:05:52.31 bitrate=N/A speed=  18x    frame= 8661 fps=430 q=-0.0 size=N/A time=00:06:01.23 bitrate=N/A speed=17.9x    frame= 8883 fps=431 q=-0.0 size=N/A time=00:06:10.49 bitrate=N/A speed=  18x    frame= 9099 fps=430 q=-0.0 size=N/A time=00:06:19.50 bitrate=N/A speed=17.9x    frame= 9345 fps=431 q=-0.0 size=N/A time=00:06:29.76 bitrate=N/A speed=  18x    frame= 9559 fps=431 q=-0.0 size=N/A time=00:06:38.68 bitrate=N/A speed=  18x    frame= 9796 fps=432 q=-0.0 size=N/A time=00:06:48.57 bitrate=N/A speed=  18x    frame=10054 fps=433 q=-0.0 size=N/A time=00:06:59.33 bitrate=N/A speed=18.1x    frame=10303 fps=434 q=-0.0 size=N/A time=00:07:09.72 bitrate=N/A speed=18.1x    frame=10573 fps=436 q=-0.0 size=N/A time=00:07:20.98 bitrate=N/A speed=18.2x    frame=10776 fps=435 q=-0.0 size=N/A time=00:07:29.44 bitrate=N/A speed=18.2x    frame=11011 fps=436 q=-0.0 size=N/A time=00:07:39.25 bitrate=N/A speed=18.2x    frame=11267 fps=437 q=-0.0 size=N/A time=00:07:49.92 bitrate=N/A speed=18.2x    frame=11469 fps=436 q=-0.0 size=N/A time=00:07:58.35 bitrate=N/A speed=18.2x    frame=11729 fps=437 q=-0.0 size=N/A time=00:08:09.19 bitrate=N/A speed=18.2x    frame=11983 fps=438 q=-0.0 size=N/A time=00:08:19.79 bitrate=N/A speed=18.3x    frame=12234 fps=439 q=-0.0 size=N/A time=00:08:30.25 bitrate=N/A speed=18.3x    frame=12479 fps=440 q=-0.0 size=N/A time=00:08:40.47 bitrate=N/A speed=18.3x    frame=12621 fps=437 q=-0.0 size=N/A time=00:08:46.40 bitrate=N/A speed=18.2x    frame=12780 fps=434 q=-0.0 size=N/A time=00:08:53.03 bitrate=N/A speed=18.1x    frame=12922 fps=432 q=-0.0 size=N/A time=00:08:58.95 bitrate=N/A speed=  18x    frame=13052 fps=429 q=-0.0 size=N/A time=00:09:04.37 bitrate=N/A speed=17.9x    frame=13158 fps=425 q=-0.0 size=N/A time=00:09:08.79 bitrate=N/A speed=17.7x    frame=13314 fps=423 q=-0.0 size=N/A time=00:09:15.30 bitrate=N/A speed=17.6x    frame=13564 fps=424 q=-0.0 size=N/A time=00:09:25.73 bitrate=N/A speed=17.7x    frame=13829 fps=425 q=-0.0 size=N/A time=00:09:36.78 bitrate=N/A speed=17.7x    frame=14086 fps=426 q=-0.0 size=N/A time=00:09:47.50 bitrate=N/A speed=17.8x    frame=14334 fps=427 q=-0.0 size=N/A time=00:09:57.84 bitrate=N/A speed=17.8x    frame=14578 fps=428 q=-0.0 size=N/A time=00:10:08.02 bitrate=N/A speed=17.8x    frame=14856 fps=430 q=-0.0 size=N/A time=00:10:19.61 bitrate=N/A speed=17.9x    frame=15125 fps=431 q=-0.0 size=N/A time=00:10:30.83 bitrate=N/A speed=  18x    frame=15401 fps=432 q=-0.0 size=N/A time=00:10:42.35 bitrate=N/A speed=  18x    frame=15675 fps=434 q=-0.0 size=N/A time=00:10:53.77 bitrate=N/A speed=18.1x    frame=15942 fps=435 q=-0.0 size=N/A time=00:11:04.91 bitrate=N/A speed=18.1x    frame=16219 fps=436 q=-0.0 size=N/A time=00:11:16.46 bitrate=N/A speed=18.2x    frame=16401 fps=435 q=-0.0 size=N/A time=00:11:24.05 bitrate=N/A speed=18.2x    frame=16672 fps=437 q=-0.0 size=N/A time=00:11:35.36 bitrate=N/A speed=18.2x    frame=16949 fps=438 q=-0.0 size=N/A time=00:11:46.91 bitrate=N/A speed=18.3x    frame=17186 fps=438 q=-0.0 size=N/A time=00:11:56.79 bitrate=N/A speed=18.3x    frame=17430 fps=439 q=-0.0 size=N/A time=00:12:06.97 bitrate=N/A speed=18.3x    frame=17688 fps=440 q=-0.0 size=N/A time=00:12:17.73 bitrate=N/A speed=18.3x    frame=17940 fps=440 q=-0.0 size=N/A time=00:12:28.24 bitrate=N/A speed=18.4x    frame=18194 fps=441 q=-0.0 size=N/A time=00:12:38.84 bitrate=N/A speed=18.4x    frame=18412 fps=441 q=-0.0 size=N/A time=00:12:47.93 bitrate=N/A speed=18.4x    frame=18644 fps=441 q=-0.0 size=N/A time=00:12:57.61 bitrate=N/A speed=18.4x    frame=18838 fps=440 q=-0.0 size=N/A time=00:13:05.70 bitrate=N/A speed=18.3x    frame=19081 fps=440 q=-0.0 size=N/A time=00:13:15.83 bitrate=N/A speed=18.4x    frame=19318 fps=440 q=-0.0 size=N/A time=00:13:25.72 bitrate=N/A speed=18.4x    frame=19536 fps=440 q=-0.0 size=N/A time=00:13:34.81 bitrate=N/A speed=18.4x    frame=19793 fps=441 q=-0.0 size=N/A time=00:13:45.57 bitrate=N/A speed=18.4x    frame=20070 fps=442 q=-0.0 size=N/A time=00:13:57.08 bitrate=N/A speed=18.4x    frame=20298 fps=442 q=-0.0 size=N/A time=00:14:06.59 bitrate=N/A speed=18.4x    frame=20538 fps=442 q=-0.0 size=N/A time=00:14:16.60 bitrate=N/A speed=18.4x    frame=20783 fps=443 q=-0.0 size=N/A time=00:14:26.82 bitrate=N/A speed=18.5x    frame=21043 fps=443 q=-0.0 size=N/A time=00:14:37.66 bitrate=N/A speed=18.5x    frame=21287 fps=444 q=-0.0 size=N/A time=00:14:47.84 bitrate=N/A speed=18.5x    frame=21470 fps=443 q=-0.0 size=N/A time=00:14:55.47 bitrate=N/A speed=18.5x    frame=21655 fps=442 q=-0.0 size=N/A time=00:15:03.19 bitrate=N/A speed=18.4x    frame=21903 fps=442 q=-0.0 size=N/A time=00:15:13.53 bitrate=N/A speed=18.4x    frame=22132 fps=442 q=-0.0 size=N/A time=00:15:23.08 bitrate=N/A speed=18.4x    frame=22375 fps=443 q=-0.0 size=N/A time=00:15:33.22 bitrate=N/A speed=18.5x    frame=22611 fps=443 q=-0.0 size=N/A time=00:15:43.06 bitrate=N/A speed=18.5x    frame=22869 fps=443 q=-0.0 size=N/A time=00:15:53.82 bitrate=N/A speed=18.5x    frame=23114 fps=444 q=-0.0 size=N/A time=00:16:04.08 bitrate=N/A speed=18.5x    frame=23363 fps=444 q=-0.0 size=N/A time=00:16:14.43 bitrate=N/A speed=18.5x    frame=23547 fps=443 q=-0.0 size=N/A time=00:16:22.10 bitrate=N/A speed=18.5x    frame=23791 fps=443 q=-0.0 size=N/A time=00:16:32.28 bitrate=N/A speed=18.5x    frame=24050 fps=444 q=-0.0 size=N/A time=00:16:43.08 bitrate=N/A speed=18.5x    frame=24310 fps=445 q=-0.0 size=N/A time=00:16:53.92 bitrate=N/A speed=18.5x    frame=24542 fps=445 q=-0.0 size=N/A time=00:17:03.60 bitrate=N/A speed=18.5x    frame=24745 fps=444 q=-0.0 size=N/A time=00:17:12.07 bitrate=N/A speed=18.5x    frame=24937 fps=443 q=-0.0 size=N/A time=00:17:20.08 bitrate=N/A speed=18.5x    frame=25097 fps=442 q=-0.0 size=N/A time=00:17:26.75 bitrate=N/A speed=18.4x    frame=25275 fps=441 q=-0.0 size=N/A time=00:17:34.17 bitrate=N/A speed=18.4x    frame=25475 fps=441 q=-0.0 size=N/A time=00:17:42.51 bitrate=N/A speed=18.4x    frame=25728 fps=441 q=-0.0 size=N/A time=00:17:53.07 bitrate=N/A speed=18.4x    frame=25965 fps=442 q=-0.0 size=N/A time=00:18:02.95 bitrate=N/A speed=18.4x    frame=26224 fps=442 q=-0.0 size=N/A time=00:18:13.75 bitrate=N/A speed=18.4x    frame=26424 fps=442 q=-0.0 size=N/A time=00:18:22.10 bitrate=N/A speed=18.4x    frame=26636 fps=441 q=-0.0 size=N/A time=00:18:30.94 bitrate=N/A speed=18.4x    frame=26879 fps=442 q=-0.0 size=N/A time=00:18:41.07 bitrate=N/A speed=18.4x    frame=27085 fps=441 q=-0.0 size=N/A time=00:18:49.67 bitrate=N/A speed=18.4x    frame=27287 fps=441 q=-0.0 size=N/A time=00:18:58.09 bitrate=N/A speed=18.4x    frame=27520 fps=441 q=-0.0 size=N/A time=00:19:07.81 bitrate=N/A speed=18.4x    frame=27744 fps=441 q=-0.0 size=N/A time=00:19:17.15 bitrate=N/A speed=18.4x    frame=27975 fps=441 q=-0.0 size=N/A time=00:19:26.79 bitrate=N/A speed=18.4x    frame=28149 fps=440 q=-0.0 size=N/A time=00:19:34.04 bitrate=N/A speed=18.4x    frame=28293 fps=439 q=-0.0 size=N/A time=00:19:40.05 bitrate=N/A speed=18.3x    frame=28451 fps=438 q=-0.0 size=N/A time=00:19:46.64 bitrate=N/A speed=18.3x    frame=28601 fps=437 q=-0.0 size=N/A time=00:19:52.90 bitrate=N/A speed=18.2x    frame=28768 fps=436 q=-0.0 size=N/A time=00:19:59.86 bitrate=N/A speed=18.2x    frame=28948 fps=435 q=-0.0 size=N/A time=00:20:07.37 bitrate=N/A speed=18.1x    frame=29100 fps=434 q=-0.0 size=N/A time=00:20:13.71 bitrate=N/A speed=18.1x    frame=29247 fps=433 q=-0.0 size=N/A time=00:20:19.84 bitrate=N/A speed=18.1x    frame=29406 fps=432 q=-0.0 size=N/A time=00:20:26.47 bitrate=N/A speed=  18x    frame=29576 fps=431 q=-0.0 size=N/A time=00:20:33.56 bitrate=N/A speed=  18x    frame=29785 fps=431 q=-0.0 size=N/A time=00:20:42.28 bitrate=N/A speed=  18x    frame=30033 fps=431 q=-0.0 size=N/A time=00:20:52.62 bitrate=N/A speed=  18x    frame=30261 fps=431 q=-0.0 size=N/A time=00:21:02.13 bitrate=N/A speed=  18x    frame=30498 fps=432 q=-0.0 size=N/A time=00:21:12.02 bitrate=N/A speed=  18x    frame=30767 fps=432 q=-0.0 size=N/A time=00:21:23.24 bitrate=N/A speed=  18x    frame=30990 fps=432 q=-0.0 size=N/A time=00:21:32.54 bitrate=N/A speed=  18x    frame=31224 fps=432 q=-0.0 size=N/A time=00:21:42.30 bitrate=N/A speed=  18x    frame=31448 fps=432 q=-0.0 size=N/A time=00:21:51.64 bitrate=N/A speed=  18x    frame=31666 fps=432 q=-0.0 size=N/A time=00:22:00.77 bitrate=N/A speed=  18x    frame=31890 fps=432 q=-0.0 size=N/A time=00:22:10.07 bitrate=N/A speed=  18x    frame=32091 fps=432 q=-0.0 size=N/A time=00:22:18.46 bitrate=N/A speed=  18x    frame=32293 fps=432 q=-0.0 size=N/A time=00:22:26.88 bitrate=N/A speed=  18x    frame=32489 fps=431 q=-0.0 size=N/A time=00:22:35.06 bitrate=N/A speed=  18x    frame=32687 fps=431 q=-0.0 size=N/A time=00:22:43.32 bitrate=N/A speed=  18x    frame=32882 fps=431 q=-0.0 size=N/A time=00:22:51.45 bitrate=N/A speed=  18x    frame=33082 fps=430 q=-0.0 size=N/A time=00:22:59.79 bitrate=N/A speed=17.9x    frame=33274 fps=430 q=-0.0 size=N/A time=00:23:07.80 bitrate=N/A speed=17.9x    frame=33479 fps=430 q=-0.0 size=N/A time=00:23:16.35 bitrate=N/A speed=17.9x    frame=33674 fps=429 q=-0.0 size=N/A time=00:23:24.48 bitrate=N/A speed=17.9x    frame=33875 fps=429 q=-0.0 size=N/A time=00:23:32.86 bitrate=N/A speed=17.9x    frame=34072 fps=429 q=-0.0 size=N/A time=00:23:41.08 bitrate=N/A speed=17.9x    [Parsed_psnr_10 @ 000001ef8dd974c0] PSNR y:46.746885 u:49.014892 v:49.141656 average:47.394054 min:37.818530 max:inf
[out#0/null @ 000001ef8b3e4e00] video:14697KiB audio:267524KiB subtitle:0KiB other streams:0KiB global headers:0KiB muxing overhead: unknown
frame=34204 fps=429 q=-0.0 Lsize=N/A time=00:23:46.59 bitrate=N/A speed=17.9x    
